<?xml version="1.0" standalone="no"?>
<!DOCTYPE svg PUBLIC "-//W3C//DTD SVG 20010904//EN"
 "http://www.w3.org/TR/2001/REC-SVG-20010904/DTD/svg10.dtd">
<svg version="1.0" xmlns="http://www.w3.org/2000/svg"
 width="955.000000pt" height="160.000000pt" viewBox="0 0 955.000000 160.000000"
 preserveAspectRatio="xMidYMid meet">

<g transform="translate(0.000000,160.000000) scale(0.100000,-0.100000)"
fill="#000000" stroke="none">
<path d="M2695 1525 c-132 -71 -304 -213 -536 -445 -206 -205 -311 -324 -451
-510 -89 -118 -98 -126 -173 -167 -158 -85 -316 -135 -361 -114 -42 19 -29 69
45 187 46 72 26 95 -43 48 -31 -21 -42 -24 -60 -16 -57 27 -39 31 -430 -99
l-239 -79 -16 22 c-28 41 -74 78 -173 139 -130 79 -159 123 -137 205 25 90
122 180 274 254 176 86 370 122 445 83 52 -27 63 -58 44 -124 -13 -44 -29 -67
-91 -128 -51 -50 -72 -76 -65 -83 25 -25 147 88 184 169 24 54 26 125 4 158
-30 46 -72 60 -176 59 -155 -2 -342 -70 -495 -178 -99 -71 -151 -140 -166
-220 -16 -86 27 -149 158 -228 93 -57 163 -113 163 -131 0 -7 -49 -29 -110
-49 -218 -74 -287 -118 -260 -167 14 -27 50 -36 130 -34 146 4 299 103 300
193 0 23 11 29 173 82 95 32 176 58 179 58 3 0 -10 -16 -28 -36 -59 -62 -57
-116 5 -122 38 -4 135 46 261 134 47 33 91 63 97 67 7 4 1 -16 -12 -45 -41
-87 -31 -138 30 -158 54 -18 161 11 323 86 50 23 92 41 92 39 0 -2 -11 -27
-25 -57 -29 -61 -33 -138 -10 -161 25 -26 71 -30 132 -12 68 20 246 108 355
176 44 27 82 49 84 49 3 0 0 -9 -6 -19 -16 -31 -12 -79 10 -101 38 -38 111
-21 322 75 l117 53 -29 -43 c-34 -50 -39 -85 -12 -85 9 0 75 40 145 90 179
125 307 187 307 148 0 -7 -7 -38 -15 -68 -31 -116 -11 -158 69 -147 39 6 116
28 179 53 15 6 17 3 11 -20 -14 -55 38 -72 119 -37 24 11 101 58 171 105 69
47 126 81 126 76 0 -5 -4 -11 -10 -15 -5 -3 -17 -30 -26 -60 -43 -136 53 -167
264 -84 137 55 292 142 292 165 0 24 -17 24 -51 1 -142 -96 -381 -189 -445
-173 -50 13 -41 68 28 173 58 90 39 121 -39 64 -37 -26 -42 -28 -56 -14 -38
39 -113 15 -322 -102 -82 -46 -216 -95 -261 -95 -29 0 -30 8 -7 117 14 67 15
84 4 97 -32 38 -124 5 -290 -104 -68 -44 -121 -76 -119 -71 8 24 127 157 190
212 64 58 76 79 42 79 -8 0 -59 -42 -112 -93 -88 -84 -110 -99 -232 -159 -212
-104 -323 -138 -336 -103 -11 29 7 65 71 145 36 44 65 87 65 95 0 24 -28 17
-47 -11 -44 -67 -473 -313 -590 -339 -86 -18 -97 39 -33 169 38 79 41 82 132
140 263 169 697 530 921 767 150 159 199 251 151 286 -27 20 -66 16 -119 -12z
m99 -23 c28 -45 -227 -315 -571 -604 -140 -118 -412 -325 -474 -362 l-33 -19
24 34 c53 76 196 244 333 390 328 350 681 625 721 561z m-1720 -1018 c9 -3 16
-10 16 -14 0 -11 -202 -148 -245 -166 -80 -33 -87 -5 -13 61 61 54 122 92 181
110 23 8 43 14 44 14 1 1 8 -2 17 -5z m2470 0 c9 -3 16 -10 16 -14 0 -11 -137
-108 -211 -149 -54 -30 -99 -40 -99 -22 0 44 168 160 277 191 1 0 8 -3 17 -6z
m-3124 -223 c0 -69 -204 -163 -312 -145 -81 13 -43 38 172 115 74 26 136 48
138 48 1 1 2 -7 2 -18z"/>
<path d="M9383 1514 c-137 -103 -473 -478 -715 -799 -134 -177 -142 -184 -197
-184 -57 1 -86 -10 -175 -66 -142 -88 -389 -195 -451 -195 -59 0 -35 69 60
179 30 34 55 66 55 71 0 26 -26 17 -68 -22 -98 -91 -322 -213 -380 -206 -26 3
-27 5 -27 68 l0 65 -41 -1 c-31 0 -63 -13 -120 -47 -43 -25 -80 -44 -82 -42
-2 2 19 41 47 87 60 100 69 129 45 153 -40 40 -114 3 -324 -164 -72 -56 -134
-101 -137 -97 -7 6 81 117 131 165 20 19 36 41 36 47 0 30 -25 22 -73 -23 -82
-77 -353 -207 -474 -228 -48 -8 -83 7 -83 34 0 9 11 50 25 90 14 40 23 81 20
91 -23 72 -155 -5 -379 -220 -99 -95 -97 -82 11 66 67 90 85 108 191 181 355
248 750 632 896 871 50 82 55 115 23 137 -24 15 -28 15 -64 -3 -120 -62 -562
-521 -896 -930 -88 -108 -109 -127 -176 -165 -241 -136 -498 -196 -517 -122
-16 64 118 203 177 183 7 -2 1 -17 -16 -36 -19 -23 -25 -36 -17 -44 26 -26 96
67 75 101 -15 24 -76 25 -121 2 -22 -11 -147 -57 -277 -101 l-238 -80 -16 22
c-28 41 -74 78 -173 139 -130 79 -159 123 -137 205 24 85 117 175 260 249 151
78 358 123 441 96 111 -36 92 -152 -44 -275 -45 -41 -59 -59 -51 -67 26 -26
146 84 184 166 11 23 19 63 19 93 0 46 -4 58 -28 82 -16 16 -49 34 -73 40
-131 36 -404 -46 -584 -174 -99 -71 -151 -140 -166 -220 -16 -86 27 -149 158
-228 93 -57 163 -113 163 -131 0 -7 -49 -29 -110 -49 -218 -74 -287 -118 -260
-167 14 -27 50 -36 130 -34 146 4 299 103 300 193 1 24 12 29 196 90 108 36
199 66 204 68 4 2 -3 -18 -16 -44 -30 -60 -30 -86 0 -121 23 -27 28 -28 103
-27 90 2 239 46 362 108 39 20 73 36 76 36 3 0 -12 -24 -33 -52 -97 -133 -132
-214 -102 -233 6 -4 58 38 116 92 173 162 264 240 315 268 45 24 49 25 49 8 0
-10 -9 -44 -20 -76 -25 -71 -25 -98 -1 -128 17 -21 28 -24 78 -23 70 2 153 29
292 95 112 53 109 55 54 -26 -17 -26 -17 -64 1 -71 22 -9 50 10 202 132 147
119 245 184 276 184 29 0 29 0 -79 -175 -30 -48 -37 -66 -34 -92 2 -24 37 -13
141 47 58 33 111 60 118 60 9 0 12 -16 10 -56 -2 -45 1 -59 17 -70 41 -30 136
-5 259 69 l74 44 -14 -33 c-8 -18 -14 -40 -14 -49 0 -25 46 -65 75 -65 36 0
163 44 264 91 59 27 81 34 77 23 -15 -40 -17 -65 -6 -79 29 -35 75 -11 219
114 39 33 62 48 57 36 -33 -78 -36 -96 -24 -123 7 -15 27 -33 43 -41 26 -13
40 -12 112 2 136 28 415 155 431 195 12 32 -19 26 -97 -19 -205 -118 -433
-180 -455 -122 -4 8 5 40 18 69 18 40 30 54 45 54 17 0 21 6 21 37 0 35 15 51
293 327 390 387 602 620 638 700 9 20 9 29 -1 41 -19 23 -44 18 -97 -21z m67
-11 c0 -21 -471 -528 -635 -683 -70 -66 -48 -35 116 160 182 217 346 395 435
471 64 56 84 68 84 52z m-2286 -51 c-64 -155 -414 -524 -734 -773 -116 -90
-160 -122 -160 -115 0 6 136 169 248 296 157 179 405 439 501 524 138 124 176
142 145 68z m1296 -966 c0 -2 -42 -40 -92 -84 -140 -119 -177 -139 -144 -74
20 40 111 121 161 143 37 17 75 25 75 15z m-3360 -225 c0 -25 -51 -76 -101
-102 -62 -31 -156 -52 -205 -44 -89 13 -53 38 166 116 74 26 136 48 138 48 1
1 2 -8 2 -18z"/>
<path d="M2332 618 c-20 -32 -20 -48 -1 -48 16 0 48 42 49 63 0 28 -26 20 -48
-15z"/>
<path d="M8011 624 c-24 -31 -27 -54 -7 -54 18 0 59 56 51 70 -10 16 -22 12
-44 -16z"/>
</g>
</svg>
